<?xml version="1.0" encoding="UTF-8"?>
<!DOCTYPE svg PUBLIC "-//W3C//DTD SVG 1.1//EN" "http://www.w3.org/Graphics/SVG/1.1/DTD/svg11.dtd">
<!-- Creator: CorelDRAW 2021.5 -->
<svg xmlns="http://www.w3.org/2000/svg" xml:space="preserve" width="246px" height="40px" version="1.1" style="shape-rendering:geometricPrecision; text-rendering:geometricPrecision; image-rendering:optimizeQuality; fill-rule:evenodd; clip-rule:evenodd"
viewBox="0 0 246 40"
 xmlns:xlink="http://www.w3.org/1999/xlink"
 xmlns:xodm="http://www.corel.com/coreldraw/odm/2003">
 <defs>
  <style type="text/css">
   <![CDATA[
    .fil6 {fill:black}
    .fil0 {fill:#007744}
    .fil2 {fill:#5E4930;fill-rule:nonzero}
    .fil3 {fill:#008349;fill-rule:nonzero}
    .fil7 {fill:black;fill-rule:nonzero}
    .fil5 {fill:#008349;fill-rule:nonzero}
    .fil4 {fill:#4F3B23;fill-rule:nonzero}
    .fil1 {fill:url(#id0)}
   ]]>
  </style>
  <linearGradient id="id0" gradientUnits="userSpaceOnUse" x1="35.42" y1="20.02" x2="35.18" y2="6.25">
   <stop offset="0" style="stop-opacity:1; stop-color:#00A859"/>
   <stop offset="1" style="stop-opacity:1; stop-color:#8CC64B"/>
  </linearGradient>
 </defs>
 <g id="Capa_x0020_1">
  <metadata id="CorelCorpID_0Corel-Layer"/>
  <path class="fil0" d="M48.51 25.08c-8.7,9.24 -34.96,-3.25 -25.53,-1.61 6.36,1.11 7.26,-3.64 21.59,-1.18 0.39,0.07 6.87,1.69 3.94,2.79z"/>
  <path class="fil1" d="M85.4 19.91l0 0.01 0 -0.03 0 0.02zm-0.04 3.64c-0.16,1.62 -1.02,3.02 -4.4,2.6 -2.29,-0.28 -2.71,-2.68 -5.31,-0.33 -0.2,0.17 -2.17,-0.49 -4.56,1.06 -1.78,1.16 -15.83,-1.52 -21.6,-0.54 -4.7,0.8 -6.14,-1.49 -8.29,-2.65 -1.68,-0.91 -3.85,-0.97 -8.02,0.55 -4.13,0.57 -12.37,0.04 -14.1,0.88 -0.02,0.01 -4.45,0.31 -9.24,-0.66 -3.01,-0.6 -5.98,0.18 -7.72,-0.54 -1.54,-0.64 -1.1,-1.92 -1.54,-3.42 -0.06,-0.21 -0.13,-0.43 -0.17,-0.61 1.32,-0.6 2.25,-1.08 2.09,-1.52 -2.05,-5.52 5.31,-0.68 6.31,-4.37 1.13,-4.14 10.34,-3.11 7.1,-5.79 -3.91,-3.22 17.2,0.25 11.78,-3.31 -1.69,-1.11 16.22,-5.48 18.83,-4.03 2.08,1.17 6.7,0.02 7.04,0.21 2.79,1.57 8.08,1.56 10.89,2.8 8.73,3.87 8.78,-3.02 8.1,4.87 3.85,0.99 2.92,2.06 4,2.43 0.66,2.86 1.92,1.93 2.58,2.74 2.83,3.49 5.75,1.63 4.31,3.22 -1.29,1.43 0.02,4.81 1.58,6.41l0.34 0z"/>
  <path class="fil0" d="M32.3 15.45c5.41,2.12 12.52,3.75 18.43,4.46 5.92,0.7 -4.81,7.92 4.17,4.45 0.1,-0.04 18.19,-3.51 20.67,-3.8 0.4,-0.04 10.3,-0.16 4.76,-2.11 -4.02,-1.42 -4.17,4.47 -16.57,-3.07 -1.02,-0.62 -6.3,-2.76 -4.65,0.67 -1.94,2.2 -15.53,-3.73 -24.1,-0.95 -0.42,0.14 -3.12,0.19 -2.71,0.35z"/>
  <path class="fil0" d="M8.99 17.12c0.64,1.22 6.47,-1.57 7.86,0.15 4.62,5.73 8.85,-0.14 15.97,1.56 1.59,0.38 0.21,0.47 -1.7,1.04 -2.73,0.82 -1.1,-0.1 -3.68,1.54 -0.31,0.2 -10.14,0.5 -10.85,-0.53 -2.5,-3.64 -2.81,-0.73 -7.14,-3.29 -0.19,-0.12 -0.37,-0.3 -0.46,-0.47z"/>
  <g id="_2030507930768">
   <polygon class="fil2" points="96.16,24.54 96.16,3.87 100.59,3.87 100.59,20.59 104.68,20.59 104.68,24.54 "/>
   <path id="_1" class="fil2" d="M117.01 10.76l0 6.9c0,2.36 -0.37,4.09 -1.1,5.19 -0.87,1.3 -2.38,1.96 -4.52,1.96 -2.14,0 -3.64,-0.66 -4.52,-1.96 -0.73,-1.1 -1.09,-2.83 -1.09,-5.19l0 -6.9c0,-2.36 0.36,-4.09 1.09,-5.19 0.88,-1.31 2.38,-1.96 4.52,-1.96 2.14,0 3.65,0.65 4.52,1.96 0.73,1.1 1.1,2.83 1.1,5.19zm-6.8 0l0 6.9c0,1.15 0.05,1.91 0.14,2.29 0.16,0.6 0.51,0.9 1.04,0.9 0.53,0 0.89,-0.3 1.05,-0.9 0.09,-0.38 0.14,-1.14 0.14,-2.29l0 -6.9c0,-1.15 -0.05,-1.92 -0.14,-2.29 -0.16,-0.61 -0.52,-0.9 -1.05,-0.9 -0.53,0 -0.88,0.29 -1.04,0.9 -0.09,0.37 -0.14,1.14 -0.14,2.29z"/>
   <path id="_2" class="fil2" d="M125.34 10.54l0 -1.19c0,-1.19 -0.36,-1.78 -1.09,-1.78 -0.25,0 -0.48,0.08 -0.68,0.26 -0.21,0.17 -0.31,0.39 -0.31,0.66 0,0.85 0.57,1.77 1.71,2.76 2.13,1.82 3.19,2.74 3.2,2.74 1.15,1.24 1.73,2.58 1.73,4.05 0,2.09 -0.25,3.59 -0.73,4.5 -0.81,1.51 -2.41,2.27 -4.8,2.27 -2.41,0 -4.03,-0.69 -4.86,-2.06 -0.52,-0.87 -0.79,-2.3 -0.79,-4.29l0 -2.06 4.43 0 0 2.06c0,0.81 0.06,1.37 0.18,1.68 0.17,0.47 0.52,0.71 1.04,0.71 0.3,0 0.56,-0.11 0.78,-0.33 0.21,-0.23 0.32,-0.49 0.32,-0.78 0,-0.95 -0.08,-1.63 -0.23,-2.06 -0.15,-0.39 -0.46,-0.82 -0.96,-1.27 -0.7,-0.62 -1.4,-1.24 -2.1,-1.86 -1.19,-1.08 -1.98,-1.92 -2.37,-2.52 -0.66,-1 -0.98,-2.18 -0.98,-3.54 0,-1.5 0.48,-2.69 1.47,-3.57 0.97,-0.87 2.29,-1.31 3.95,-1.31 2.11,0 3.58,0.51 4.44,1.53 0.72,0.87 1.08,2.28 1.08,4.21l0 1.19 -4.43 0z"/>
   <path id="_3" class="fil2" d="M149.23 16.64l0 1.02c0,2.36 -0.37,4.09 -1.1,5.19 -0.87,1.3 -2.38,1.96 -4.52,1.96 -2.14,0 -3.64,-0.66 -4.52,-1.96 -0.73,-1.1 -1.09,-2.83 -1.09,-5.19l0 -6.9c0,-2.36 0.36,-4.09 1.09,-5.19 0.88,-1.31 2.38,-1.96 4.52,-1.96 2.11,0 3.6,0.65 4.48,1.94 0.76,1.12 1.14,2.85 1.14,5.21l0 1.02 -4.43 0 0 -1.02c0,-1.1 -0.06,-1.87 -0.18,-2.29 -0.16,-0.61 -0.5,-0.9 -1.01,-0.9 -0.53,0 -0.88,0.29 -1.04,0.9 -0.09,0.37 -0.14,1.14 -0.14,2.29l0 6.9c0,1.15 0.05,1.91 0.14,2.29 0.16,0.6 0.51,0.9 1.04,0.9 0.53,0 0.89,-0.3 1.05,-0.9 0.09,-0.38 0.14,-1.14 0.14,-2.29l0 -1.02 4.43 0z"/>
   <polygon id="_4" class="fil2" points="151.36,24.54 151.36,3.87 160.24,3.87 160.24,7.83 155.79,7.83 155.79,11.15 160.24,11.15 160.24,15.1 155.79,15.1 155.79,20.59 160.24,20.59 160.24,24.54 "/>
   <polygon id="_5" class="fil2" points="162.62,24.54 162.62,3.87 166.39,3.87 169.42,13.81 169.47,13.81 169.47,3.87 173.9,3.87 173.9,24.54 170.13,24.54 167.1,15.76 167.04,15.76 167.04,24.54 "/>
   <path id="_6" class="fil2" d="M176.3 24.54l0 -20.67 4.43 0 0 20.67 -4.43 0zm0.16 -22.06l1.42 -2.48 4.81 0 -2.49 2.48 -3.74 0z"/>
   <polygon id="_7" class="fil2" points="182.83,24.54 182.83,20.59 188.29,7.83 183.41,7.83 183.41,3.87 193.22,3.87 193.22,7.84 187.76,20.59 193.22,20.59 193.22,24.54 "/>
   <path id="_8" class="fil2" d="M194.85 24.54l2.61 -20.67 6.54 0 2.61 20.67 -4.35 0 -0.29 -2.95 -2.47 0 -0.3 2.95 -4.35 0zm5.85 -14.84l-0.78 7.94 1.66 0 -0.82 -7.94 -0.06 0z"/>
   <path id="_9" class="fil2" d="M212.75 7.83l0 3.43c1.07,0 1.72,-0.08 1.93,-0.22 0.26,-0.17 0.39,-0.68 0.39,-1.52 0,-0.82 -0.13,-1.31 -0.39,-1.48 -0.21,-0.14 -0.86,-0.21 -1.93,-0.21zm-4.43 16.71l0 -20.67 4.69 0c2.78,0 4.62,0.52 5.52,1.55 0.65,0.73 0.97,2.1 0.97,4.1 0,1.42 -0.18,2.45 -0.54,3.09 -0.2,0.36 -0.6,0.7 -1.18,1.04 0.61,0.62 0.96,1.03 1.05,1.27 0.22,0.54 0.32,1.63 0.32,3.29l0 6.33 -4.42 0 0 -6.47c0,-1.38 -0.09,-2.24 -0.26,-2.56 -0.22,-0.38 -0.79,-0.56 -1.72,-0.56l0 9.59 -4.43 0z"/>
   <path id="_10" class="fil2" d="M232.7 10.76l0 6.9c0,2.36 -0.36,4.09 -1.09,5.19 -0.87,1.3 -2.38,1.96 -4.52,1.96 -2.14,0 -3.64,-0.66 -4.52,-1.96 -0.73,-1.1 -1.1,-2.83 -1.1,-5.19l0 -6.9c0,-2.36 0.37,-4.09 1.1,-5.19 0.88,-1.31 2.38,-1.96 4.52,-1.96 2.14,0 3.65,0.65 4.52,1.96 0.73,1.1 1.09,2.83 1.09,5.19zm-6.8 0l0 6.9c0,1.15 0.05,1.91 0.14,2.29 0.17,0.6 0.52,0.9 1.05,0.9 0.53,0 0.88,-0.3 1.04,-0.9 0.1,-0.38 0.15,-1.14 0.15,-2.29l0 -6.9c0,-1.15 -0.05,-1.92 -0.15,-2.29 -0.16,-0.61 -0.51,-0.9 -1.04,-0.9 -0.53,0 -0.88,0.29 -1.05,0.9 -0.09,0.37 -0.14,1.14 -0.14,2.29z"/>
   <path id="_11" class="fil2" d="M241.03 10.54l0 -1.19c0,-1.19 -0.36,-1.78 -1.08,-1.78 -0.25,0 -0.48,0.08 -0.69,0.26 -0.2,0.17 -0.31,0.39 -0.31,0.66 0,0.85 0.57,1.77 1.71,2.76 2.13,1.82 3.2,2.74 3.21,2.74 1.15,1.24 1.72,2.58 1.72,4.05 0,2.09 -0.24,3.59 -0.73,4.5 -0.8,1.51 -2.4,2.27 -4.8,2.27 -2.4,0 -4.03,-0.69 -4.86,-2.06 -0.52,-0.87 -0.78,-2.3 -0.78,-4.29l0 -2.06 4.43 0 0 2.06c0,0.81 0.06,1.37 0.18,1.68 0.17,0.47 0.51,0.71 1.03,0.71 0.3,0 0.56,-0.11 0.78,-0.33 0.22,-0.23 0.33,-0.49 0.33,-0.78 0,-0.95 -0.08,-1.63 -0.24,-2.06 -0.14,-0.39 -0.46,-0.82 -0.95,-1.27 -0.7,-0.62 -1.41,-1.24 -2.11,-1.86 -1.19,-1.08 -1.97,-1.92 -2.37,-2.52 -0.65,-1 -0.98,-2.18 -0.98,-3.54 0,-1.5 0.49,-2.69 1.47,-3.57 0.98,-0.87 2.3,-1.31 3.96,-1.31 2.1,0 3.58,0.51 4.43,1.53 0.72,0.87 1.08,2.28 1.08,4.21l0 1.19 -4.43 0z"/>
   <path class="fil3" d="M100.57 39.87c-0.1,0 -0.16,-0.04 -0.19,-0.12l-1.46 -4.73c-0.01,-0.04 -0.03,-0.05 -0.06,-0.05l-1.11 0c-0.05,0 -0.07,0.02 -0.07,0.06l0 4.68c0,0.11 -0.05,0.16 -0.16,0.16l-1.2 0c-0.11,0 -0.16,-0.05 -0.16,-0.16l0 -10.79c0,-0.1 0.05,-0.16 0.16,-0.16l2.84 0c0.54,0 1.01,0.13 1.43,0.4 0.41,0.26 0.73,0.64 0.96,1.12 0.22,0.48 0.34,1.03 0.34,1.64 0,0.67 -0.14,1.25 -0.42,1.74 -0.27,0.49 -0.65,0.85 -1.12,1.07 -0.03,0.03 -0.04,0.06 -0.03,0.1l1.61 4.87 0.02 0.06c0,0.08 -0.05,0.11 -0.14,0.11l-1.24 0zm-2.82 -9.79c-0.05,0 -0.07,0.02 -0.07,0.06l0 3.56c0,0.04 0.02,0.06 0.07,0.06l1.17 0c0.43,0 0.78,-0.16 1.05,-0.5 0.26,-0.33 0.39,-0.77 0.39,-1.32 0,-0.57 -0.13,-1.03 -0.39,-1.36 -0.27,-0.33 -0.62,-0.5 -1.05,-0.5l-1.17 0z"/>
   <path id="_1_0" class="fil3" d="M108.66 29.92c0,0.11 -0.05,0.16 -0.15,0.16l-3.58 0c-0.04,0 -0.06,0.02 -0.06,0.06l0 3.45c0,0.04 0.02,0.06 0.06,0.06l2.19 0c0.11,0 0.16,0.05 0.16,0.16l0 1c0,0.1 -0.05,0.16 -0.16,0.16l-2.19 0c-0.04,0 -0.06,0.02 -0.06,0.06l0 3.46c0,0.04 0.02,0.07 0.06,0.07l3.58 0c0.1,0 0.15,0.05 0.15,0.15l0 1c0,0.11 -0.05,0.16 -0.15,0.16l-5 0c-0.11,0 -0.16,-0.05 -0.16,-0.16l0 -10.79c0,-0.1 0.05,-0.16 0.16,-0.16l5 0c0.1,0 0.15,0.06 0.15,0.16l0 1z"/>
   <path id="_2_1" class="fil3" d="M112.62 40c-0.84,0 -1.51,-0.26 -2.03,-0.79 -0.51,-0.52 -0.77,-1.21 -0.77,-2.05l0 -0.41c0,-0.11 0.05,-0.16 0.16,-0.16l1.17 0c0.11,0 0.16,0.05 0.16,0.16l0 0.33c0,0.49 0.13,0.87 0.37,1.17 0.24,0.29 0.55,0.43 0.94,0.43 0.38,0 0.69,-0.14 0.94,-0.42 0.25,-0.28 0.37,-0.65 0.37,-1.1 0,-0.31 -0.06,-0.58 -0.2,-0.81 -0.13,-0.23 -0.3,-0.44 -0.52,-0.63 -0.22,-0.18 -0.57,-0.46 -1.05,-0.82 -0.54,-0.4 -0.97,-0.74 -1.27,-1.03 -0.31,-0.28 -0.57,-0.63 -0.78,-1.03 -0.21,-0.4 -0.32,-0.87 -0.32,-1.41 0,-0.86 0.25,-1.54 0.76,-2.04 0.51,-0.5 1.17,-0.75 1.99,-0.75 0.84,0 1.52,0.27 2.04,0.81 0.51,0.53 0.77,1.24 0.77,2.12l0 0.4c0,0.1 -0.06,0.16 -0.16,0.16l-1.18 0c-0.1,0 -0.16,-0.06 -0.16,-0.16l0 -0.43c0,-0.48 -0.12,-0.86 -0.36,-1.15 -0.24,-0.29 -0.56,-0.44 -0.95,-0.44 -0.37,0 -0.68,0.13 -0.91,0.39 -0.23,0.26 -0.35,0.62 -0.35,1.09 0,0.42 0.12,0.78 0.35,1.07 0.23,0.29 0.68,0.68 1.35,1.17 0.63,0.47 1.11,0.86 1.44,1.16 0.32,0.29 0.57,0.62 0.74,0.97 0.18,0.36 0.26,0.78 0.26,1.26 0,0.89 -0.26,1.6 -0.77,2.14 -0.52,0.53 -1.2,0.8 -2.03,0.8z"/>
   <path id="_3_2" class="fil3" d="M122.14 28.76c0.1,0 0.16,0.06 0.16,0.16l0 1c0,0.11 -0.06,0.16 -0.16,0.16l-2.08 0c-0.04,0 -0.07,0.02 -0.07,0.06l0 9.57c0,0.11 -0.05,0.16 -0.15,0.16l-1.21 0c-0.11,0 -0.16,-0.05 -0.16,-0.16l0 -9.57c0,-0.04 -0.02,-0.06 -0.06,-0.06l-1.97 0c-0.11,0 -0.16,-0.05 -0.16,-0.16l0 -1c0,-0.1 0.05,-0.16 0.16,-0.16l5.7 0z"/>
   <path id="_4_3" class="fil3" d="M127.44 39.87c-0.1,0 -0.16,-0.05 -0.18,-0.14l-0.35 -1.83c0,-0.02 0,-0.03 -0.02,-0.04 -0.02,-0.01 -0.03,-0.02 -0.06,-0.02l-2.58 0c-0.02,0 -0.04,0.01 -0.06,0.02 -0.01,0.01 -0.02,0.02 -0.02,0.04l-0.33 1.83c-0.02,0.09 -0.07,0.14 -0.18,0.14l-1.21 0c-0.05,0 -0.09,-0.01 -0.11,-0.05 -0.03,-0.03 -0.04,-0.07 -0.03,-0.12l2.37 -10.79c0.02,-0.1 0.08,-0.15 0.17,-0.15l1.41 0c0.11,0 0.17,0.05 0.18,0.15l2.38 10.79 0 0.03c0,0.09 -0.05,0.14 -0.14,0.14l-1.24 0zm-3 -3.3c0,0.04 0.01,0.06 0.05,0.06l2.11 0c0.03,0 0.04,-0.02 0.04,-0.06l-1.08 -5.63c-0.01,-0.02 -0.02,-0.03 -0.03,-0.03 -0.01,0 -0.02,0.01 -0.03,0.03l-1.06 5.63z"/>
   <path id="_5_4" class="fil3" d="M132.8 40c-0.87,0 -1.56,-0.29 -2.08,-0.87 -0.53,-0.57 -0.79,-1.33 -0.79,-2.27l0 -7.94c0,-0.1 0.05,-0.16 0.16,-0.16l1.2 0c0.11,0 0.16,0.06 0.16,0.16l0 8.09c0,0.5 0.13,0.9 0.38,1.21 0.24,0.31 0.57,0.46 0.97,0.46 0.41,0 0.74,-0.15 0.99,-0.46 0.25,-0.31 0.38,-0.71 0.38,-1.21l0 -8.09c0,-0.1 0.05,-0.16 0.16,-0.16l1.2 0c0.11,0 0.16,0.06 0.16,0.16l0 7.94c0,0.94 -0.26,1.7 -0.79,2.27 -0.53,0.58 -1.23,0.87 -2.1,0.87z"/>
   <path id="_6_5" class="fil3" d="M141.99 39.87c-0.09,0 -0.16,-0.04 -0.19,-0.12l-1.46 -4.73c-0.01,-0.04 -0.03,-0.05 -0.06,-0.05l-1.11 0c-0.05,0 -0.07,0.02 -0.07,0.06l0 4.68c0,0.11 -0.05,0.16 -0.16,0.16l-1.2 0c-0.11,0 -0.16,-0.05 -0.16,-0.16l0 -10.79c0,-0.1 0.05,-0.16 0.16,-0.16l2.84 0c0.54,0 1.01,0.13 1.43,0.4 0.41,0.26 0.73,0.64 0.96,1.12 0.22,0.48 0.34,1.03 0.34,1.64 0,0.67 -0.14,1.25 -0.42,1.74 -0.27,0.49 -0.64,0.85 -1.12,1.07 -0.03,0.03 -0.04,0.06 -0.03,0.1l1.62 4.87 0.01 0.06c0,0.08 -0.05,0.11 -0.14,0.11l-1.24 0zm-2.82 -9.79c-0.05,0 -0.07,0.02 -0.07,0.06l0 3.56c0,0.04 0.02,0.06 0.07,0.06l1.17 0c0.43,0 0.78,-0.16 1.05,-0.5 0.26,-0.33 0.39,-0.77 0.39,-1.32 0,-0.57 -0.13,-1.03 -0.39,-1.36 -0.27,-0.33 -0.62,-0.5 -1.05,-0.5l-1.17 0z"/>
   <path id="_7_6" class="fil3" d="M149.28 39.87c-0.1,0 -0.16,-0.05 -0.18,-0.14l-0.35 -1.83c0,-0.02 -0.01,-0.03 -0.02,-0.04 -0.02,-0.01 -0.04,-0.02 -0.06,-0.02l-2.59 0c-0.02,0 -0.04,0.01 -0.05,0.02 -0.02,0.01 -0.02,0.02 -0.02,0.04l-0.34 1.83c-0.01,0.09 -0.07,0.14 -0.17,0.14l-1.21 0c-0.05,0 -0.09,-0.01 -0.12,-0.05 -0.02,-0.03 -0.03,-0.07 -0.02,-0.12l2.36 -10.79c0.02,-0.1 0.08,-0.15 0.18,-0.15l1.41 0c0.11,0 0.16,0.05 0.17,0.15l2.39 10.79 0 0.03c0,0.09 -0.05,0.14 -0.15,0.14l-1.23 0zm-3 -3.3c0,0.04 0.01,0.06 0.04,0.06l2.11 0c0.04,0 0.05,-0.02 0.05,-0.06l-1.08 -5.63c-0.01,-0.02 -0.02,-0.03 -0.03,-0.03 -0.01,0 -0.02,0.01 -0.03,0.03l-1.06 5.63z"/>
   <path id="_8_7" class="fil3" d="M156.32 28.92c0,-0.1 0.05,-0.16 0.16,-0.16l1.19 0c0.11,0 0.16,0.06 0.16,0.16l0 10.79c0,0.11 -0.05,0.16 -0.16,0.16l-1.36 0c-0.09,0 -0.15,-0.04 -0.18,-0.12l-2.7 -7.26c-0.01,-0.02 -0.02,-0.03 -0.04,-0.02 -0.02,0 -0.04,0.02 -0.04,0.04l0.02 7.2c0,0.11 -0.05,0.16 -0.16,0.16l-1.21 0c-0.1,0 -0.15,-0.05 -0.15,-0.16l0 -10.79c0,-0.1 0.05,-0.16 0.15,-0.16l1.35 0c0.09,0 0.15,0.05 0.18,0.13l2.71 7.25c0.01,0.03 0.03,0.05 0.05,0.04 0.02,0 0.03,-0.02 0.03,-0.05l0 -7.21z"/>
   <path id="_9_8" class="fil3" d="M165.15 28.76c0.1,0 0.16,0.06 0.16,0.16l0 1c0,0.11 -0.06,0.16 -0.16,0.16l-2.08 0c-0.05,0 -0.07,0.02 -0.07,0.06l0 9.57c0,0.11 -0.05,0.16 -0.16,0.16l-1.2 0c-0.11,0 -0.16,-0.05 -0.16,-0.16l0 -9.57c0,-0.04 -0.02,-0.06 -0.06,-0.06l-1.97 0c-0.11,0 -0.16,-0.05 -0.16,-0.16l0 -1c0,-0.1 0.05,-0.16 0.16,-0.16l5.7 0z"/>
   <path id="_10_9" class="fil3" d="M172.08 29.92c0,0.11 -0.05,0.16 -0.16,0.16l-3.57 0c-0.04,0 -0.06,0.02 -0.06,0.06l0 3.45c0,0.04 0.02,0.06 0.06,0.06l2.19 0c0.11,0 0.16,0.05 0.16,0.16l0 1c0,0.1 -0.05,0.16 -0.16,0.16l-2.19 0c-0.04,0 -0.06,0.02 -0.06,0.06l0 3.46c0,0.04 0.02,0.07 0.06,0.07l3.57 0c0.11,0 0.16,0.05 0.16,0.15l0 1c0,0.11 -0.05,0.16 -0.16,0.16l-5 0c-0.1,0 -0.16,-0.05 -0.16,-0.16l0 -10.79c0,-0.1 0.06,-0.16 0.16,-0.16l5 0c0.11,0 0.16,0.06 0.16,0.16l0 1z"/>
   <path id="_11_10" class="fil3" d="M178.72 39.86c-0.11,0 -0.16,-0.06 -0.16,-0.16l0 -4.54 -0.02 -0.08 -2.21 -6.14 -0.01 -0.07c0,-0.07 0.05,-0.11 0.14,-0.11l1.27 0c0.1,0 0.16,0.05 0.19,0.13l1.35 4.38c0.01,0.02 0.03,0.03 0.05,0.03 0.02,0 0.04,-0.01 0.05,-0.03l1.35 -4.38c0.03,-0.08 0.09,-0.13 0.19,-0.13l1.26 0c0.12,0 0.16,0.06 0.13,0.18l-2.2 6.14 -0.02 0.08 0 4.54c0,0.1 -0.05,0.16 -0.16,0.16l-1.2 0z"/>
   <path id="_12" class="fil3" d="M192.76 36.84c0,0.96 -0.27,1.71 -0.82,2.24 -0.54,0.53 -1.26,0.79 -2.15,0.79l-2.65 0c-0.1,0 -0.16,-0.05 -0.16,-0.16l0 -10.79c0,-0.1 0.06,-0.16 0.16,-0.16l2.43 0c0.96,0 1.72,0.25 2.26,0.76 0.55,0.5 0.82,1.23 0.82,2.19 0,1.15 -0.41,1.94 -1.22,2.37 -0.06,0.03 -0.06,0.06 -0.02,0.08 0.42,0.25 0.75,0.61 0.99,1.06 0.24,0.46 0.36,1 0.36,1.62zm-4.19 -6.76c-0.04,0 -0.06,0.02 -0.06,0.06l0 3.37c0,0.04 0.02,0.06 0.06,0.06l1.02 0c0.49,0 0.88,-0.15 1.16,-0.45 0.27,-0.3 0.41,-0.72 0.41,-1.26 0,-0.56 -0.14,-1 -0.41,-1.31 -0.28,-0.31 -0.67,-0.47 -1.16,-0.47l-1.02 0zm1.1 8.46c0.48,0 0.87,-0.17 1.15,-0.49 0.28,-0.33 0.42,-0.8 0.42,-1.4 0,-0.61 -0.14,-1.09 -0.42,-1.44 -0.27,-0.34 -0.65,-0.51 -1.14,-0.51l-1.11 0c-0.04,0 -0.06,0.02 -0.06,0.06l0 3.72c0,0.04 0.02,0.06 0.06,0.06l1.1 0z"/>
   <path id="_13" class="fil3" d="M198.24 39.87c-0.1,0 -0.16,-0.05 -0.18,-0.14l-0.35 -1.83c0,-0.02 -0.01,-0.03 -0.02,-0.04 -0.02,-0.01 -0.04,-0.02 -0.06,-0.02l-2.58 0c-0.03,0 -0.04,0.01 -0.06,0.02 -0.02,0.01 -0.02,0.02 -0.02,0.04l-0.34 1.83c-0.01,0.09 -0.07,0.14 -0.17,0.14l-1.21 0c-0.05,0 -0.09,-0.01 -0.12,-0.05 -0.02,-0.03 -0.03,-0.07 -0.02,-0.12l2.36 -10.79c0.03,-0.1 0.08,-0.15 0.18,-0.15l1.41 0c0.11,0 0.16,0.05 0.18,0.15l2.38 10.79 0 0.03c0,0.09 -0.05,0.14 -0.15,0.14l-1.23 0zm-3 -3.3c0,0.04 0.01,0.06 0.04,0.06l2.11 0c0.04,0 0.05,-0.02 0.05,-0.06l-1.08 -5.63c-0.01,-0.02 -0.02,-0.03 -0.03,-0.03 -0.01,0 -0.02,0.01 -0.03,0.03l-1.06 5.63z"/>
   <path id="_14" class="fil3" d="M200.97 39.87c-0.11,0 -0.16,-0.05 -0.16,-0.16l0 -10.79c0,-0.1 0.05,-0.16 0.16,-0.16l1.2 0c0.11,0 0.16,0.06 0.16,0.16l0 9.57c0,0.04 0.02,0.07 0.06,0.07l3.56 0c0.1,0 0.16,0.05 0.16,0.15l0 1c0,0.11 -0.06,0.16 -0.16,0.16l-4.98 0z"/>
   <path id="_15" class="fil3" d="M211.74 28.92c0,-0.1 0.05,-0.16 0.16,-0.16l1.19 0c0.11,0 0.16,0.06 0.16,0.16l0 10.79c0,0.11 -0.05,0.16 -0.16,0.16l-1.36 0c-0.09,0 -0.15,-0.04 -0.18,-0.12l-2.7 -7.26c-0.01,-0.02 -0.02,-0.03 -0.04,-0.02 -0.02,0 -0.04,0.02 -0.04,0.04l0.02 7.2c0,0.11 -0.05,0.16 -0.16,0.16l-1.21 0c-0.1,0 -0.15,-0.05 -0.15,-0.16l0 -10.79c0,-0.1 0.05,-0.16 0.15,-0.16l1.35 0c0.09,0 0.15,0.05 0.18,0.13l2.71 7.25c0.01,0.03 0.03,0.05 0.05,0.04 0.02,0 0.03,-0.02 0.03,-0.05l0 -7.21z"/>
   <path id="_16" class="fil3" d="M220.53 29.92c0,0.11 -0.05,0.16 -0.15,0.16l-3.57 0c-0.05,0 -0.07,0.02 -0.07,0.06l0 3.45c0,0.04 0.02,0.06 0.07,0.06l2.19 0c0.1,0 0.15,0.05 0.15,0.16l0 1c0,0.1 -0.05,0.16 -0.15,0.16l-2.19 0c-0.05,0 -0.07,0.02 -0.07,0.06l0 3.46c0,0.04 0.02,0.07 0.07,0.07l3.57 0c0.1,0 0.15,0.05 0.15,0.15l0 1c0,0.11 -0.05,0.16 -0.15,0.16l-5 0c-0.11,0 -0.16,-0.05 -0.16,-0.16l0 -10.79c0,-0.1 0.05,-0.16 0.16,-0.16l5 0c0.1,0 0.15,0.06 0.15,0.16l0 1z"/>
   <path id="_17" class="fil3" d="M226.76 39.87c-0.1,0 -0.16,-0.05 -0.18,-0.14l-0.35 -1.83c0,-0.02 -0.01,-0.03 -0.02,-0.04 -0.02,-0.01 -0.04,-0.02 -0.06,-0.02l-2.58 0c-0.03,0 -0.04,0.01 -0.06,0.02 -0.01,0.01 -0.02,0.02 -0.02,0.04l-0.34 1.83c-0.01,0.09 -0.07,0.14 -0.17,0.14l-1.21 0c-0.05,0 -0.09,-0.01 -0.12,-0.05 -0.02,-0.03 -0.03,-0.07 -0.02,-0.12l2.36 -10.79c0.03,-0.1 0.08,-0.15 0.18,-0.15l1.41 0c0.11,0 0.17,0.05 0.18,0.15l2.38 10.79 0 0.03c0,0.09 -0.05,0.14 -0.15,0.14l-1.23 0zm-3 -3.3c0,0.04 0.01,0.06 0.04,0.06l2.12 0c0.03,0 0.04,-0.02 0.04,-0.06l-1.08 -5.63c-0.01,-0.02 -0.02,-0.03 -0.03,-0.03 -0.01,0 -0.02,0.01 -0.03,0.03l-1.06 5.63z"/>
   <path id="_18" class="fil3" d="M233.74 39.87c-0.1,0 -0.16,-0.04 -0.19,-0.12l-1.46 -4.73c-0.01,-0.04 -0.03,-0.05 -0.06,-0.05l-1.12 0c-0.04,0 -0.06,0.02 -0.06,0.06l0 4.68c0,0.11 -0.05,0.16 -0.16,0.16l-1.2 0c-0.11,0 -0.16,-0.05 -0.16,-0.16l0 -10.79c0,-0.1 0.05,-0.16 0.16,-0.16l2.84 0c0.54,0 1.01,0.13 1.43,0.4 0.41,0.26 0.73,0.64 0.96,1.12 0.22,0.48 0.34,1.03 0.34,1.64 0,0.67 -0.14,1.25 -0.42,1.74 -0.27,0.49 -0.65,0.85 -1.12,1.07 -0.03,0.03 -0.04,0.06 -0.03,0.1l1.61 4.87 0.02 0.06c0,0.08 -0.05,0.11 -0.14,0.11l-1.24 0zm-2.83 -9.79c-0.04,0 -0.06,0.02 -0.06,0.06l0 3.56c0,0.04 0.02,0.06 0.06,0.06l1.18 0c0.43,0 0.78,-0.16 1.05,-0.5 0.26,-0.33 0.39,-0.77 0.39,-1.32 0,-0.57 -0.13,-1.03 -0.39,-1.36 -0.27,-0.33 -0.62,-0.5 -1.05,-0.5l-1.18 0z"/>
   <path id="_19" class="fil3" d="M236.68 39.87c-0.11,0 -0.16,-0.05 -0.16,-0.16l0 -10.79c0,-0.1 0.05,-0.16 0.16,-0.16l1.2 0c0.11,0 0.16,0.06 0.16,0.16l0 10.79c0,0.11 -0.05,0.16 -0.16,0.16l-1.2 0z"/>
   <path id="_20" class="fil3" d="M242.67 40c-0.86,0 -1.56,-0.26 -2.09,-0.79 -0.53,-0.53 -0.8,-1.24 -0.8,-2.11l0 -5.54c0,-0.88 0.27,-1.59 0.8,-2.12 0.53,-0.54 1.23,-0.8 2.09,-0.8 0.88,0 1.59,0.26 2.12,0.8 0.54,0.53 0.8,1.24 0.8,2.12l0 5.54c0,0.87 -0.26,1.58 -0.8,2.11 -0.53,0.53 -1.24,0.79 -2.12,0.79zm0 -1.32c0.43,0 0.76,-0.14 1.02,-0.42 0.25,-0.28 0.38,-0.65 0.38,-1.1l0 -5.68c0,-0.46 -0.13,-0.83 -0.38,-1.11 -0.26,-0.28 -0.59,-0.42 -1.02,-0.42 -0.41,0 -0.74,0.14 -0.99,0.42 -0.25,0.28 -0.37,0.65 -0.37,1.11l0 5.68c0,0.45 0.12,0.82 0.37,1.1 0.25,0.28 0.58,0.42 0.99,0.42z"/>
  </g>
  <path class="fil4" d="M96.16 24.54l0 -20.67 4.43 0 0 16.72 4.09 0 0 3.95 -8.52 0zm20.85 -13.78l0 6.9c0,2.36 -0.37,4.09 -1.1,5.19 -0.87,1.3 -2.38,1.96 -4.52,1.96 -2.14,0 -3.64,-0.66 -4.52,-1.96 -0.73,-1.1 -1.09,-2.83 -1.09,-5.19l0 -6.9c0,-2.36 0.36,-4.09 1.09,-5.19 0.88,-1.31 2.38,-1.96 4.52,-1.96 2.14,0 3.65,0.65 4.52,1.96 0.73,1.1 1.1,2.83 1.1,5.19zm-6.8 0l0 6.9c0,1.15 0.05,1.91 0.14,2.29 0.16,0.6 0.51,0.9 1.04,0.9 0.53,0 0.89,-0.3 1.05,-0.9 0.09,-0.38 0.14,-1.14 0.14,-2.29l0 -6.9c0,-1.15 -0.05,-1.92 -0.14,-2.29 -0.16,-0.61 -0.52,-0.9 -1.05,-0.9 -0.53,0 -0.88,0.29 -1.04,0.9 -0.09,0.37 -0.14,1.14 -0.14,2.29zm15.13 -0.22l0 -1.19c0,-1.19 -0.36,-1.78 -1.09,-1.78 -0.25,0 -0.48,0.08 -0.68,0.26 -0.21,0.17 -0.31,0.39 -0.31,0.66 0,0.85 0.57,1.77 1.71,2.76 2.13,1.82 3.19,2.74 3.2,2.74 1.15,1.24 1.73,2.58 1.73,4.05 0,2.09 -0.25,3.59 -0.73,4.5 -0.81,1.51 -2.41,2.27 -4.8,2.27 -2.41,0 -4.03,-0.69 -4.86,-2.06 -0.52,-0.87 -0.79,-2.3 -0.79,-4.29l0 -2.06 4.43 0 0 2.06c0,0.81 0.06,1.37 0.18,1.68 0.17,0.47 0.52,0.71 1.04,0.71 0.3,0 0.56,-0.11 0.78,-0.33 0.21,-0.23 0.32,-0.49 0.32,-0.78 0,-0.95 -0.08,-1.63 -0.23,-2.06 -0.15,-0.39 -0.46,-0.82 -0.96,-1.27 -0.7,-0.62 -1.4,-1.24 -2.1,-1.86 -1.19,-1.08 -1.98,-1.92 -2.37,-2.52 -0.66,-1 -0.98,-2.18 -0.98,-3.54 0,-1.5 0.48,-2.69 1.47,-3.57 0.97,-0.87 2.29,-1.31 3.95,-1.31 2.11,0 3.58,0.51 4.44,1.53 0.72,0.87 1.08,2.28 1.08,4.21l0 1.19 -4.43 0zm23.89 6.1l0 1.02c0,2.36 -0.37,4.09 -1.1,5.19 -0.87,1.3 -2.38,1.96 -4.52,1.96 -2.14,0 -3.64,-0.66 -4.52,-1.96 -0.73,-1.1 -1.09,-2.83 -1.09,-5.19l0 -6.9c0,-2.36 0.36,-4.09 1.09,-5.19 0.88,-1.31 2.38,-1.96 4.52,-1.96 2.11,0 3.6,0.65 4.48,1.94 0.76,1.12 1.14,2.85 1.14,5.21l0 1.02 -4.43 0 0 -1.02c0,-1.1 -0.06,-1.87 -0.18,-2.29 -0.16,-0.61 -0.5,-0.9 -1.01,-0.9 -0.53,0 -0.88,0.29 -1.04,0.9 -0.09,0.37 -0.14,1.14 -0.14,2.29l0 6.9c0,1.15 0.05,1.91 0.14,2.29 0.16,0.6 0.51,0.9 1.04,0.9 0.53,0 0.89,-0.3 1.05,-0.9 0.09,-0.38 0.14,-1.14 0.14,-2.29l0 -1.02 4.43 0zm2.13 7.9l0 -20.67 8.88 0 0 3.96 -4.45 0 0 3.32 4.45 0 0 3.95 -4.45 0 0 5.49 4.45 0 0 3.95 -8.88 0zm11.26 0l0 -20.67 3.77 0 3.03 9.94 0.05 0 0 -9.94 4.43 0 0 20.67 -3.77 0 -3.03 -8.78 -0.06 0 0 8.78 -4.42 0zm13.68 0l0 -20.67 4.43 0 0 20.67 -4.43 0zm0.16 -22.06l1.42 -2.48 4.81 0 -2.49 2.48 -3.74 0zm6.37 22.06l0 -3.95 5.46 -12.76 -4.88 0 0 -3.96 9.81 0 0 3.97 -5.46 12.75 5.46 0 0 3.95 -10.39 0zm12.02 0l2.61 -20.67 6.54 0 2.61 20.67 -4.35 0 -0.29 -2.95 -2.47 0 -0.3 2.95 -4.35 0zm5.85 -14.84l-0.78 7.94 1.66 0 -0.82 -7.94 -0.06 0zm12.05 -1.87l0 3.43c1.07,0 1.72,-0.08 1.93,-0.22 0.26,-0.17 0.39,-0.68 0.39,-1.52 0,-0.82 -0.13,-1.31 -0.39,-1.48 -0.21,-0.14 -0.86,-0.21 -1.93,-0.21zm-4.43 16.71l0 -20.67 4.69 0c2.78,0 4.62,0.52 5.52,1.55 0.65,0.73 0.97,2.1 0.97,4.1 0,1.42 -0.18,2.45 -0.54,3.09 -0.2,0.36 -0.6,0.7 -1.18,1.04 0.61,0.62 0.96,1.03 1.05,1.27 0.22,0.54 0.32,1.63 0.32,3.29l0 6.33 -4.42 0 0 -6.47c0,-1.38 -0.09,-2.24 -0.26,-2.56 -0.22,-0.38 -0.79,-0.56 -1.72,-0.56l0 9.59 -4.43 0zm24.38 -13.78l0 6.9c0,2.36 -0.36,4.09 -1.09,5.19 -0.87,1.3 -2.38,1.96 -4.52,1.96 -2.14,0 -3.64,-0.66 -4.52,-1.96 -0.73,-1.1 -1.1,-2.83 -1.1,-5.19l0 -6.9c0,-2.36 0.37,-4.09 1.1,-5.19 0.88,-1.31 2.38,-1.96 4.52,-1.96 2.14,0 3.65,0.65 4.52,1.96 0.73,1.1 1.09,2.83 1.09,5.19zm-6.8 0l0 6.9c0,1.15 0.05,1.91 0.14,2.29 0.17,0.6 0.52,0.9 1.05,0.9 0.53,0 0.88,-0.3 1.04,-0.9 0.1,-0.38 0.15,-1.14 0.15,-2.29l0 -6.9c0,-1.15 -0.05,-1.92 -0.15,-2.29 -0.16,-0.61 -0.51,-0.9 -1.04,-0.9 -0.53,0 -0.88,0.29 -1.05,0.9 -0.09,0.37 -0.14,1.14 -0.14,2.29zm15.13 -0.22l0 -1.19c0,-1.19 -0.36,-1.78 -1.08,-1.78 -0.25,0 -0.48,0.08 -0.69,0.26 -0.2,0.17 -0.31,0.39 -0.31,0.66 0,0.85 0.57,1.77 1.71,2.76 2.13,1.82 3.2,2.74 3.21,2.74 1.15,1.24 1.72,2.58 1.72,4.05 0,2.09 -0.24,3.59 -0.73,4.5 -0.8,1.51 -2.4,2.27 -4.8,2.27 -2.4,0 -4.03,-0.69 -4.86,-2.06 -0.52,-0.87 -0.78,-2.3 -0.78,-4.29l0 -2.06 4.43 0 0 2.06c0,0.81 0.06,1.37 0.18,1.68 0.17,0.47 0.51,0.71 1.03,0.71 0.3,0 0.56,-0.11 0.78,-0.33 0.22,-0.23 0.33,-0.49 0.33,-0.78 0,-0.95 -0.08,-1.63 -0.24,-2.06 -0.14,-0.39 -0.46,-0.82 -0.95,-1.27 -0.7,-0.62 -1.41,-1.24 -2.11,-1.86 -1.19,-1.08 -1.97,-1.92 -2.37,-2.52 -0.65,-1 -0.98,-2.18 -0.98,-3.54 0,-1.5 0.49,-2.69 1.47,-3.57 0.98,-0.87 2.3,-1.31 3.96,-1.31 2.1,0 3.58,0.51 4.43,1.53 0.72,0.87 1.08,2.28 1.08,4.21l0 1.19 -4.43 0z"/>
  <path class="fil5" d="M100.57 39.87c-0.1,0 -0.16,-0.04 -0.19,-0.12l-1.46 -4.73c-0.01,-0.04 -0.03,-0.05 -0.06,-0.05l-1.11 0c-0.05,0 -0.07,0.02 -0.07,0.06l0 4.68c0,0.11 -0.05,0.16 -0.16,0.16l-1.2 0c-0.11,0 -0.16,-0.05 -0.16,-0.16l0 -10.79c0,-0.1 0.05,-0.16 0.16,-0.16l2.84 0c0.54,0 1.01,0.13 1.43,0.4 0.41,0.26 0.73,0.64 0.96,1.12 0.22,0.48 0.34,1.03 0.34,1.64 0,0.67 -0.14,1.25 -0.42,1.74 -0.27,0.49 -0.65,0.85 -1.12,1.07 -0.03,0.03 -0.04,0.06 -0.03,0.1l1.61 4.87 0.02 0.06c0,0.08 -0.05,0.11 -0.14,0.11l-1.24 0zm-2.82 -9.79c-0.05,0 -0.07,0.02 -0.07,0.06l0 3.56c0,0.04 0.02,0.06 0.07,0.06l1.17 0c0.43,0 0.78,-0.16 1.05,-0.5 0.26,-0.33 0.39,-0.77 0.39,-1.32 0,-0.57 -0.13,-1.03 -0.39,-1.36 -0.27,-0.33 -0.62,-0.5 -1.05,-0.5l-1.17 0zm10.91 -0.16c0,0.11 -0.05,0.16 -0.15,0.16l-3.58 0c-0.04,0 -0.06,0.02 -0.06,0.06l0 3.45c0,0.04 0.02,0.06 0.06,0.06l2.19 0c0.11,0 0.16,0.05 0.16,0.16l0 1c0,0.1 -0.05,0.16 -0.16,0.16l-2.19 0c-0.04,0 -0.06,0.02 -0.06,0.06l0 3.46c0,0.04 0.02,0.07 0.06,0.07l3.58 0c0.1,0 0.15,0.05 0.15,0.15l0 1c0,0.11 -0.05,0.16 -0.15,0.16l-5 0c-0.11,0 -0.16,-0.05 -0.16,-0.16l0 -10.79c0,-0.1 0.05,-0.16 0.16,-0.16l5 0c0.1,0 0.15,0.06 0.15,0.16l0 1zm3.96 10.08c-0.84,0 -1.51,-0.26 -2.03,-0.79 -0.51,-0.52 -0.77,-1.21 -0.77,-2.05l0 -0.41c0,-0.11 0.05,-0.16 0.16,-0.16l1.17 0c0.11,0 0.16,0.05 0.16,0.16l0 0.33c0,0.49 0.13,0.87 0.37,1.17 0.24,0.29 0.55,0.43 0.94,0.43 0.38,0 0.69,-0.14 0.94,-0.42 0.25,-0.28 0.37,-0.65 0.37,-1.1 0,-0.31 -0.06,-0.58 -0.2,-0.81 -0.13,-0.23 -0.3,-0.44 -0.52,-0.63 -0.22,-0.18 -0.57,-0.46 -1.05,-0.82 -0.54,-0.4 -0.97,-0.74 -1.27,-1.03 -0.31,-0.28 -0.57,-0.63 -0.78,-1.03 -0.21,-0.4 -0.32,-0.87 -0.32,-1.41 0,-0.86 0.25,-1.54 0.76,-2.04 0.51,-0.5 1.17,-0.75 1.99,-0.75 0.84,0 1.52,0.27 2.04,0.81 0.51,0.53 0.77,1.24 0.77,2.12l0 0.4c0,0.1 -0.06,0.16 -0.16,0.16l-1.18 0c-0.1,0 -0.16,-0.06 -0.16,-0.16l0 -0.43c0,-0.48 -0.12,-0.86 -0.36,-1.15 -0.24,-0.29 -0.56,-0.44 -0.95,-0.44 -0.37,0 -0.68,0.13 -0.91,0.39 -0.23,0.26 -0.35,0.62 -0.35,1.09 0,0.42 0.12,0.78 0.35,1.07 0.23,0.29 0.68,0.68 1.35,1.17 0.63,0.47 1.11,0.86 1.44,1.16 0.32,0.29 0.57,0.62 0.74,0.97 0.18,0.36 0.26,0.78 0.26,1.26 0,0.89 -0.26,1.6 -0.77,2.14 -0.52,0.53 -1.2,0.8 -2.03,0.8zm9.52 -11.24c0.1,0 0.16,0.06 0.16,0.16l0 1c0,0.11 -0.06,0.16 -0.16,0.16l-2.08 0c-0.04,0 -0.07,0.02 -0.07,0.06l0 9.57c0,0.11 -0.05,0.16 -0.15,0.16l-1.21 0c-0.11,0 -0.16,-0.05 -0.16,-0.16l0 -9.57c0,-0.04 -0.02,-0.06 -0.06,-0.06l-1.97 0c-0.11,0 -0.16,-0.05 -0.16,-0.16l0 -1c0,-0.1 0.05,-0.16 0.16,-0.16l5.7 0zm5.3 11.11c-0.1,0 -0.16,-0.05 -0.18,-0.14l-0.35 -1.83c0,-0.02 0,-0.03 -0.02,-0.04 -0.02,-0.01 -0.03,-0.02 -0.06,-0.02l-2.58 0c-0.02,0 -0.04,0.01 -0.06,0.02 -0.01,0.01 -0.02,0.02 -0.02,0.04l-0.33 1.83c-0.02,0.09 -0.07,0.14 -0.18,0.14l-1.21 0c-0.05,0 -0.09,-0.01 -0.11,-0.05 -0.03,-0.03 -0.04,-0.07 -0.03,-0.12l2.37 -10.79c0.02,-0.1 0.08,-0.15 0.17,-0.15l1.41 0c0.11,0 0.17,0.05 0.18,0.15l2.38 10.79 0 0.03c0,0.09 -0.05,0.14 -0.14,0.14l-1.24 0zm-3 -3.3c0,0.04 0.01,0.06 0.05,0.06l2.11 0c0.03,0 0.04,-0.02 0.04,-0.06l-1.08 -5.63c-0.01,-0.02 -0.02,-0.03 -0.03,-0.03 -0.01,0 -0.02,0.01 -0.03,0.03l-1.06 5.63zm8.36 3.43c-0.87,0 -1.56,-0.29 -2.08,-0.87 -0.53,-0.57 -0.79,-1.33 -0.79,-2.27l0 -7.94c0,-0.1 0.05,-0.16 0.16,-0.16l1.2 0c0.11,0 0.16,0.06 0.16,0.16l0 8.09c0,0.5 0.13,0.9 0.38,1.21 0.24,0.31 0.57,0.46 0.97,0.46 0.41,0 0.74,-0.15 0.99,-0.46 0.25,-0.31 0.38,-0.71 0.38,-1.21l0 -8.09c0,-0.1 0.05,-0.16 0.16,-0.16l1.2 0c0.11,0 0.16,0.06 0.16,0.16l0 7.94c0,0.94 -0.26,1.7 -0.79,2.27 -0.53,0.58 -1.23,0.87 -2.1,0.87zm9.19 -0.13c-0.09,0 -0.16,-0.04 -0.19,-0.12l-1.46 -4.73c-0.01,-0.04 -0.03,-0.05 -0.06,-0.05l-1.11 0c-0.05,0 -0.07,0.02 -0.07,0.06l0 4.68c0,0.11 -0.05,0.16 -0.16,0.16l-1.2 0c-0.11,0 -0.16,-0.05 -0.16,-0.16l0 -10.79c0,-0.1 0.05,-0.16 0.16,-0.16l2.84 0c0.54,0 1.01,0.13 1.43,0.4 0.41,0.26 0.73,0.64 0.96,1.12 0.22,0.48 0.34,1.03 0.34,1.64 0,0.67 -0.14,1.25 -0.42,1.74 -0.27,0.49 -0.64,0.85 -1.12,1.07 -0.03,0.03 -0.04,0.06 -0.03,0.1l1.62 4.87 0.01 0.06c0,0.08 -0.05,0.11 -0.14,0.11l-1.24 0zm-2.82 -9.79c-0.05,0 -0.07,0.02 -0.07,0.06l0 3.56c0,0.04 0.02,0.06 0.07,0.06l1.17 0c0.43,0 0.78,-0.16 1.05,-0.5 0.26,-0.33 0.39,-0.77 0.39,-1.32 0,-0.57 -0.13,-1.03 -0.39,-1.36 -0.27,-0.33 -0.62,-0.5 -1.05,-0.5l-1.17 0zm10.11 9.79c-0.1,0 -0.16,-0.05 -0.18,-0.14l-0.35 -1.83c0,-0.02 -0.01,-0.03 -0.02,-0.04 -0.02,-0.01 -0.04,-0.02 -0.06,-0.02l-2.59 0c-0.02,0 -0.04,0.01 -0.05,0.02 -0.02,0.01 -0.02,0.02 -0.02,0.04l-0.34 1.83c-0.01,0.09 -0.07,0.14 -0.17,0.14l-1.21 0c-0.05,0 -0.09,-0.01 -0.12,-0.05 -0.02,-0.03 -0.03,-0.07 -0.02,-0.12l2.36 -10.79c0.02,-0.1 0.08,-0.15 0.18,-0.15l1.41 0c0.11,0 0.16,0.05 0.17,0.15l2.39 10.79 0 0.03c0,0.09 -0.05,0.14 -0.15,0.14l-1.23 0zm-3 -3.3c0,0.04 0.01,0.06 0.04,0.06l2.11 0c0.04,0 0.05,-0.02 0.05,-0.06l-1.08 -5.63c-0.01,-0.02 -0.02,-0.03 -0.03,-0.03 -0.01,0 -0.02,0.01 -0.03,0.03l-1.06 5.63zm10.04 -7.65c0,-0.1 0.05,-0.16 0.16,-0.16l1.19 0c0.11,0 0.16,0.06 0.16,0.16l0 10.79c0,0.11 -0.05,0.16 -0.16,0.16l-1.36 0c-0.09,0 -0.15,-0.04 -0.18,-0.12l-2.7 -7.26c-0.01,-0.02 -0.02,-0.03 -0.04,-0.02 -0.02,0 -0.04,0.02 -0.04,0.04l0.02 7.2c0,0.11 -0.05,0.16 -0.16,0.16l-1.21 0c-0.1,0 -0.15,-0.05 -0.15,-0.16l0 -10.79c0,-0.1 0.05,-0.16 0.15,-0.16l1.35 0c0.09,0 0.15,0.05 0.18,0.13l2.71 7.25c0.01,0.03 0.03,0.05 0.05,0.04 0.02,0 0.03,-0.02 0.03,-0.05l0 -7.21zm8.83 -0.16c0.1,0 0.16,0.06 0.16,0.16l0 1c0,0.11 -0.06,0.16 -0.16,0.16l-2.08 0c-0.05,0 -0.07,0.02 -0.07,0.06l0 9.57c0,0.11 -0.05,0.16 -0.16,0.16l-1.2 0c-0.11,0 -0.16,-0.05 -0.16,-0.16l0 -9.57c0,-0.04 -0.02,-0.06 -0.06,-0.06l-1.97 0c-0.11,0 -0.16,-0.05 -0.16,-0.16l0 -1c0,-0.1 0.05,-0.16 0.16,-0.16l5.7 0zm6.93 1.16c0,0.11 -0.05,0.16 -0.16,0.16l-3.57 0c-0.04,0 -0.06,0.02 -0.06,0.06l0 3.45c0,0.04 0.02,0.06 0.06,0.06l2.19 0c0.11,0 0.16,0.05 0.16,0.16l0 1c0,0.1 -0.05,0.16 -0.16,0.16l-2.19 0c-0.04,0 -0.06,0.02 -0.06,0.06l0 3.46c0,0.04 0.02,0.07 0.06,0.07l3.57 0c0.11,0 0.16,0.05 0.16,0.15l0 1c0,0.11 -0.05,0.16 -0.16,0.16l-5 0c-0.1,0 -0.16,-0.05 -0.16,-0.16l0 -10.79c0,-0.1 0.06,-0.16 0.16,-0.16l5 0c0.11,0 0.16,0.06 0.16,0.16l0 1zm6.64 9.94c-0.11,0 -0.16,-0.06 -0.16,-0.16l0 -4.54 -0.02 -0.08 -2.21 -6.14 -0.01 -0.07c0,-0.07 0.05,-0.11 0.14,-0.11l1.27 0c0.1,0 0.16,0.05 0.19,0.13l1.35 4.38c0.01,0.02 0.03,0.03 0.05,0.03 0.02,0 0.04,-0.01 0.05,-0.03l1.35 -4.38c0.03,-0.08 0.09,-0.13 0.19,-0.13l1.26 0c0.12,0 0.16,0.06 0.13,0.18l-2.2 6.14 -0.02 0.08 0 4.54c0,0.1 -0.05,0.16 -0.16,0.16l-1.2 0zm14.04 -3.02c0,0.96 -0.27,1.71 -0.82,2.24 -0.54,0.53 -1.26,0.79 -2.15,0.79l-2.65 0c-0.1,0 -0.16,-0.05 -0.16,-0.16l0 -10.79c0,-0.1 0.06,-0.16 0.16,-0.16l2.43 0c0.96,0 1.72,0.25 2.26,0.76 0.55,0.5 0.82,1.23 0.82,2.19 0,1.15 -0.41,1.94 -1.22,2.37 -0.06,0.03 -0.06,0.06 -0.02,0.08 0.42,0.25 0.75,0.61 0.99,1.06 0.24,0.46 0.36,1 0.36,1.62zm-4.19 -6.76c-0.04,0 -0.06,0.02 -0.06,0.06l0 3.37c0,0.04 0.02,0.06 0.06,0.06l1.02 0c0.49,0 0.88,-0.15 1.16,-0.45 0.27,-0.3 0.41,-0.72 0.41,-1.26 0,-0.56 -0.14,-1 -0.41,-1.31 -0.28,-0.31 -0.67,-0.47 -1.16,-0.47l-1.02 0zm1.1 8.46c0.48,0 0.87,-0.17 1.15,-0.49 0.28,-0.33 0.42,-0.8 0.42,-1.4 0,-0.61 -0.14,-1.09 -0.42,-1.44 -0.27,-0.34 -0.65,-0.51 -1.14,-0.51l-1.11 0c-0.04,0 -0.06,0.02 -0.06,0.06l0 3.72c0,0.04 0.02,0.06 0.06,0.06l1.1 0zm8.57 1.33c-0.1,0 -0.16,-0.05 -0.18,-0.14l-0.35 -1.83c0,-0.02 -0.01,-0.03 -0.02,-0.04 -0.02,-0.01 -0.04,-0.02 -0.06,-0.02l-2.58 0c-0.03,0 -0.04,0.01 -0.06,0.02 -0.02,0.01 -0.02,0.02 -0.02,0.04l-0.34 1.83c-0.01,0.09 -0.07,0.14 -0.17,0.14l-1.21 0c-0.05,0 -0.09,-0.01 -0.12,-0.05 -0.02,-0.03 -0.03,-0.07 -0.02,-0.12l2.36 -10.79c0.03,-0.1 0.08,-0.15 0.18,-0.15l1.41 0c0.11,0 0.16,0.05 0.18,0.15l2.38 10.79 0 0.03c0,0.09 -0.05,0.14 -0.15,0.14l-1.23 0zm-3 -3.3c0,0.04 0.01,0.06 0.04,0.06l2.11 0c0.04,0 0.05,-0.02 0.05,-0.06l-1.08 -5.63c-0.01,-0.02 -0.02,-0.03 -0.03,-0.03 -0.01,0 -0.02,0.01 -0.03,0.03l-1.06 5.63zm5.73 3.3c-0.11,0 -0.16,-0.05 -0.16,-0.16l0 -10.79c0,-0.1 0.05,-0.16 0.16,-0.16l1.2 0c0.11,0 0.16,0.06 0.16,0.16l0 9.57c0,0.04 0.02,0.07 0.06,0.07l3.56 0c0.1,0 0.16,0.05 0.16,0.15l0 1c0,0.11 -0.06,0.16 -0.16,0.16l-4.98 0zm10.77 -10.95c0,-0.1 0.05,-0.16 0.16,-0.16l1.19 0c0.11,0 0.16,0.06 0.16,0.16l0 10.79c0,0.11 -0.05,0.16 -0.16,0.16l-1.36 0c-0.09,0 -0.15,-0.04 -0.18,-0.12l-2.7 -7.26c-0.01,-0.02 -0.02,-0.03 -0.04,-0.02 -0.02,0 -0.04,0.02 -0.04,0.04l0.02 7.2c0,0.11 -0.05,0.16 -0.16,0.16l-1.21 0c-0.1,0 -0.15,-0.05 -0.15,-0.16l0 -10.79c0,-0.1 0.05,-0.16 0.15,-0.16l1.35 0c0.09,0 0.15,0.05 0.18,0.13l2.71 7.25c0.01,0.03 0.03,0.05 0.05,0.04 0.02,0 0.03,-0.02 0.03,-0.05l0 -7.21zm8.79 1c0,0.11 -0.05,0.16 -0.15,0.16l-3.57 0c-0.05,0 -0.07,0.02 -0.07,0.06l0 3.45c0,0.04 0.02,0.06 0.07,0.06l2.19 0c0.1,0 0.15,0.05 0.15,0.16l0 1c0,0.1 -0.05,0.16 -0.15,0.16l-2.19 0c-0.05,0 -0.07,0.02 -0.07,0.06l0 3.46c0,0.04 0.02,0.07 0.07,0.07l3.57 0c0.1,0 0.15,0.05 0.15,0.15l0 1c0,0.11 -0.05,0.16 -0.15,0.16l-5 0c-0.11,0 -0.16,-0.05 -0.16,-0.16l0 -10.79c0,-0.1 0.05,-0.16 0.16,-0.16l5 0c0.1,0 0.15,0.06 0.15,0.16l0 1zm6.23 9.95c-0.1,0 -0.16,-0.05 -0.18,-0.14l-0.35 -1.83c0,-0.02 -0.01,-0.03 -0.02,-0.04 -0.02,-0.01 -0.04,-0.02 -0.06,-0.02l-2.58 0c-0.03,0 -0.04,0.01 -0.06,0.02 -0.01,0.01 -0.02,0.02 -0.02,0.04l-0.34 1.83c-0.01,0.09 -0.07,0.14 -0.17,0.14l-1.21 0c-0.05,0 -0.09,-0.01 -0.12,-0.05 -0.02,-0.03 -0.03,-0.07 -0.02,-0.12l2.36 -10.79c0.03,-0.1 0.08,-0.15 0.18,-0.15l1.41 0c0.11,0 0.17,0.05 0.18,0.15l2.38 10.79 0 0.03c0,0.09 -0.05,0.14 -0.15,0.14l-1.23 0zm-3 -3.3c0,0.04 0.01,0.06 0.04,0.06l2.12 0c0.03,0 0.04,-0.02 0.04,-0.06l-1.08 -5.63c-0.01,-0.02 -0.02,-0.03 -0.03,-0.03 -0.01,0 -0.02,0.01 -0.03,0.03l-1.06 5.63zm9.98 3.3c-0.1,0 -0.16,-0.04 -0.19,-0.12l-1.46 -4.73c-0.01,-0.04 -0.03,-0.05 -0.06,-0.05l-1.12 0c-0.04,0 -0.06,0.02 -0.06,0.06l0 4.68c0,0.11 -0.05,0.16 -0.16,0.16l-1.2 0c-0.11,0 -0.16,-0.05 -0.16,-0.16l0 -10.79c0,-0.1 0.05,-0.16 0.16,-0.16l2.84 0c0.54,0 1.01,0.13 1.43,0.4 0.41,0.26 0.73,0.64 0.96,1.12 0.22,0.48 0.34,1.03 0.34,1.64 0,0.67 -0.14,1.25 -0.42,1.74 -0.27,0.49 -0.65,0.85 -1.12,1.07 -0.03,0.03 -0.04,0.06 -0.03,0.1l1.61 4.87 0.02 0.06c0,0.08 -0.05,0.11 -0.14,0.11l-1.24 0zm-2.83 -9.79c-0.04,0 -0.06,0.02 -0.06,0.06l0 3.56c0,0.04 0.02,0.06 0.06,0.06l1.18 0c0.43,0 0.78,-0.16 1.05,-0.5 0.26,-0.33 0.39,-0.77 0.39,-1.32 0,-0.57 -0.13,-1.03 -0.39,-1.36 -0.27,-0.33 -0.62,-0.5 -1.05,-0.5l-1.18 0zm5.77 9.79c-0.11,0 -0.16,-0.05 -0.16,-0.16l0 -10.79c0,-0.1 0.05,-0.16 0.16,-0.16l1.2 0c0.11,0 0.16,0.06 0.16,0.16l0 10.79c0,0.11 -0.05,0.16 -0.16,0.16l-1.2 0zm5.99 0.13c-0.86,0 -1.56,-0.26 -2.09,-0.79 -0.53,-0.53 -0.8,-1.24 -0.8,-2.11l0 -5.54c0,-0.88 0.27,-1.59 0.8,-2.12 0.53,-0.54 1.23,-0.8 2.09,-0.8 0.88,0 1.59,0.26 2.12,0.8 0.54,0.53 0.8,1.24 0.8,2.12l0 5.54c0,0.87 -0.26,1.58 -0.8,2.11 -0.53,0.53 -1.24,0.79 -2.12,0.79zm0 -1.32c0.43,0 0.76,-0.14 1.02,-0.42 0.25,-0.28 0.38,-0.65 0.38,-1.1l0 -5.68c0,-0.46 -0.13,-0.83 -0.38,-1.11 -0.26,-0.28 -0.59,-0.42 -1.02,-0.42 -0.41,0 -0.74,0.14 -0.99,0.42 -0.25,0.28 -0.37,0.65 -0.37,1.11l0 5.68c0,0.45 0.12,0.82 0.37,1.1 0.25,0.28 0.58,0.42 0.99,0.42z"/>
  <path class="fil6" d="M39.25 38.45l-2.88 0c0,0 -0.49,-2.16 -0.54,-4.33 0,0 -0.19,-0.84 -0.62,-1.68 -0.44,-0.85 -1.16,-2.37 -1.88,-3.05 -0.71,-0.67 -1.75,-1.24 -2.13,-1.46 -0.37,-0.23 -1.43,-0.92 -1.81,-1.69 -0.02,-0.05 -0.05,-0.09 -0.07,-0.15 0.39,0.01 0.78,0 1.14,-0.02 0.25,0.26 0.55,0.52 0.9,0.74 1.22,0.77 2.07,1.2 2.49,1.68 0,0 -0.03,-0.45 -0.5,-1.19 -0.23,-0.35 -0.62,-0.92 -0.98,-1.42 0.23,-0.04 0.46,-0.08 0.69,-0.12l1.06 1.58 0.31 -0.42 0.57 0.95c0,0 -0.1,1.02 0.17,1.64 0.26,0.63 1.42,2.4 1.42,2.4 0,0 0.24,0.34 0.47,0.23 0.22,-0.12 0.18,-0.68 -0.13,-1.24 -0.31,-0.56 -1.54,-2.7 -1.89,-3.32 -0.32,-0.55 -1.07,-1.72 -1.26,-2 0.56,-0.16 0.61,-0.24 1.07,-0.53l0.38 0.54 1.07 -0.44 0.27 0.2c-0.24,0.35 -0.37,0.46 -0.59,0.59 -0.4,0.23 0.13,0.93 0.49,1.51 0.36,0.57 0.33,0.77 0.33,0.77 0,0 0.49,0.16 0.77,-0.35 0.18,-0.32 0.44,-0.87 0.67,-1.31 0.46,0.26 1.01,0.5 1.35,0.66 0.12,0.06 0.26,0.13 0.41,0.2 -0.09,0.31 -0.16,0.65 -0.2,0.98 0.32,-0.14 0.72,-0.3 1.19,-0.46 0.05,0.04 0.11,0.07 0.16,0.11 -0.03,0.2 -0.05,0.4 -0.04,0.6 -0.51,0.25 -0.99,0.52 -1.29,0.78l0.01 0.03c0.24,0.78 0.08,1.41 -0.18,1.81 -0.27,0.39 -1.74,3.03 -1.56,4.29 0.17,1.25 -0.18,1.2 1.16,2.89zm-0.11 -11.09c0,0 -0.78,1.43 -0.83,2.19 -0.05,0.76 0.25,1.44 0.45,0.88 0.2,-0.56 0,-0.7 0,-1.32 0,-0.62 0.38,-1.75 0.38,-1.75z"/>
  <path class="fil6" d="M42.82 38.46l3.44 0c0,0 0.59,-2.58 0.65,-5.17 0,0 0.23,-1.01 0.75,-2.02 0.51,-1.01 1.38,-2.83 2.24,-3.64 0.85,-0.81 2.09,-1.48 2.54,-1.76 0.45,-0.26 1.72,-1.09 2.17,-2.01 0.09,-0.19 0.21,-0.41 0.34,-0.65 1.28,-0.44 1.53,-2.28 5.11,-0.92 0.27,0.1 5.29,2.33 2.76,0.92 -1.01,-0.56 -3.94,-1.79 -5.14,-1.79 -0.63,0 -1.44,0.36 -2.12,0.77 0.39,-0.59 0.78,-1.09 1.04,-1.2 0,0 0.64,-0.32 1.28,-0.21 0.65,0.1 4.34,1.69 4.34,1.69l0.1 -0.18 -3.68 -1.81c0,0 -0.56,-0.37 -0.26,-0.62 0.3,-0.24 0.6,-0.63 1.08,-1.22 0.49,-0.59 0.98,-1.06 1.38,-1.27 0.39,-0.22 1.62,-1.06 2.5,-1.18l0 -0.37c0,0 -1.43,0.53 -1.9,0.53 -0.47,0 0,-0.72 0.3,-1.16l0.45 -0.55 -0.94 0c0,0 -0.9,2.23 -2.22,3.43 0,0 -1.1,0.86 -2.02,1.36 -0.92,0.49 -2.57,2.74 -2.57,2.74 0,0 -0.74,1.45 -2.19,2.37 -1.45,0.92 -2.47,1.43 -2.98,2.01 0,0 0.04,-0.54 0.61,-1.42 0.57,-0.88 2.06,-2.96 2.06,-2.96l0.43 0.04 0.08 -0.21 -0.16 -0.29c0,0 0.32,-0.38 0.22,-0.78 -0.1,-0.4 -0.11,-3.35 0.01,-4.57l-0.33 -0.06c0,0 -0.16,3.8 -0.73,5.12l-2.51 3.76 -0.36 -0.51 -0.68 1.14c0,0 0.11,1.22 -0.2,1.97 -0.32,0.74 -1.71,2.86 -1.71,2.86 0,0 -0.29,0.41 -0.55,0.27 -0.27,-0.13 -0.23,-0.81 0.14,-1.48 0.37,-0.67 1.84,-3.22 2.27,-3.97 0.43,-0.75 1.55,-2.46 1.55,-2.46 0,0 1.07,-1.72 1.97,-2.45l0.23 -0.25 0.06 -0.92c0,0 -0.88,0.98 -1.34,1.27 0,0 -0.32,0.05 -0.02,-0.28 0.29,-0.34 1.49,-1.61 1.49,-1.61l0.09 -1.01 -1.72 1.9c0,0 -0.29,0.26 -0.52,-0.23 -0.24,-0.49 -1.04,-2.41 -1.04,-2.41 0,0 -0.2,-0.43 0.24,-0.63l1.4 -0.79 -0.16 -0.28 -1.79 0.69c0,0 -0.34,0.15 -0.51,-0.07l1.24 -1.04 -0.29 -0.13 -1.45 0.63 -0.91 -0.99 -0.11 0 -0.23 0.18 0.96 1.13c0,0 0.6,1.02 0.95,1.71 0.35,0.68 1.15,2.42 1.15,2.42 0,0 0.19,0.37 -0.01,0.65 -0.19,0.28 -0.99,0.57 -1.3,0.07 -0.32,-0.51 -0.62,-1.43 -0.71,-1.86 -0.09,-0.42 -0.46,-1.94 -0.46,-1.94l0.35 -0.55 -0.23 -0.13 -0.43 0.15 -1.07 -0.89 -0.19 0.34c0,0 0.49,0.42 0.66,0.94 0.16,0.52 0.51,1.65 0.51,1.65 0,0 0.23,1.51 0.44,1.92 0.21,0.4 0.71,1.18 1.07,1.36l-0.44 1.39c0,0 -0.68,-0.67 -0.79,-1.28 -0.1,-0.61 -0.78,-1.21 -0.98,-1.53 -0.19,-0.31 -0.8,-1.63 -0.8,-1.63l1.04 -1.07 -0.16 -0.48 -0.4 0.19 0.07 -0.98 -0.4 -0.12c0,0 -0.06,1.03 -0.34,1.74l-0.45 -0.44c0,0 -0.39,-1.22 -0.76,-1.99 -0.36,-0.77 -0.33,-1.35 -0.33,-1.35l-0.34 0.22c0,0 0.18,1.61 0.37,1.98l-0.93 -0.39 0 0.39c0,0 0.41,-0.03 0.62,0.37 0.21,0.4 0.27,0.58 0.51,1.11 0.24,0.54 0.46,1.34 0.46,1.34 0,0 -0.01,1.29 0.51,1.75 0.51,0.46 0.88,0.43 1.23,1.09 0.34,0.67 0.77,1.78 1.24,2.06 0.48,0.27 -0.09,0.69 -0.52,1.38 -0.43,0.69 -0.39,0.93 -0.39,0.93 0,0 -0.59,0.19 -0.92,-0.42 -0.34,-0.61 -0.93,-1.92 -1.22,-2.26 -0.3,-0.33 -0.65,-1.16 -0.65,-1.16l0.81 -1.76c0,0 -0.26,-0.52 -0.2,-1.13l-0.83 1.77c0,0 -0.28,0.3 -0.47,-0.5 -0.18,-0.79 -0.6,-1.44 -0.61,-2.17 -0.01,-0.72 -0.48,-1.24 -0.48,-1.24l-0.54 -2 0.72 -1.36 -0.44 0.1 -0.47 0.94 -0.77 -0.12 0 0.3c0,0 0.5,0.09 0.63,0.56 0.13,0.48 0.49,1.67 0.49,1.67l-0.25 1.07 0.22 0.08 0.27 -0.67c0,0 0.29,0.61 0.37,1.26 0.07,0.66 0.43,1.91 0.43,1.91 0,0 0.36,0.81 0,0.67 -0.36,-0.13 -0.46,-1.01 -0.67,-1.29 -0.2,-0.27 -1.28,-1.47 -1.28,-1.47l-1.28 -1.76c0,0 -0.72,-0.97 -0.7,-1.3l0 -0.37 0.16 -1.05 -0.16 0.03 -0.32 1.37 -1.57 -0.73 0 0.21c0,0 1.2,0.66 1.38,0.94 0.17,0.29 1.8,2.66 1.8,2.66 0,0 1.51,1.56 1.33,1.77 -0.17,0.2 -2.06,-1.17 -2.06,-1.17l-4.67 -2.1 0 0.56c0,0 2.76,1.26 3.55,1.84 0.78,0.57 1.73,1.41 1.73,1.41 0,0 2.08,1.22 1.26,1.3 -0.83,0.08 -2.46,-0.37 -3.07,-0.49 -0.61,-0.12 -2.24,-0.55 -2.24,-0.55 0,0 -2.01,-1.2 -2.36,-1.77l-1.77 0.41c0,0 2.63,0.71 3.05,1.65 0,0 -1.44,0.24 -2.66,-0.27 -1.22,-0.51 -3.05,-1.42 -3.85,-1.34l-0.95 0.08 0 0.43c0,0 0.93,-0.26 1.39,0.01 0.46,0.27 1.74,1.06 2.55,1.34 0.81,0.28 3.06,0.51 3.06,0.51 0,0 1.83,-0.22 2.43,-0.01 0.61,0.21 0.86,0.06 1.7,0.53 0.85,0.47 2.33,0.57 2.33,0.57 0,0 1.08,0.08 1.48,0.45 0.27,0.25 0.62,1.31 0.73,2.27 -0.44,-0.19 -1.01,-0.42 -1.69,-0.63l-0.65 -1.73 -0.2 0 0.16 1.47c-0.62,-0.33 -2.19,-1.18 -2.98,-1.47l-0.12 0.2c0.43,0.41 1.41,1.04 1.57,1.21 0.39,0.44 2.91,1.33 3.89,2.19l-0.01 0.03c-0.29,0.94 -0.1,1.69 0.22,2.16 0.31,0.47 2.07,3.63 1.86,5.13 -0.21,1.5 0.21,1.44 -1.39,3.46zm0.04 -13.53c0,0 1.03,1.98 1.09,2.89 0.06,0.9 -0.3,1.72 -0.54,1.05 -0.25,-0.67 0,-0.83 0,-1.57 0,-0.75 -0.55,-2.37 -0.55,-2.37z"/>
  <path class="fil6" d="M52.54 19.03l0.09 0.69c0,0 0.9,-0.69 1.45,-0.69 0.54,0 2.61,-0.39 2.85,-0.32 0.25,0.08 0.63,0.18 0.63,0.18l0.59 -0.35 -0.53 -0.3c0,0 0.83,-0.35 1.41,-0.39l0.25 -0.25 -0.7 0 -0.06 -0.75 -0.16 0c0,0 0.1,0.45 -0.11,0.58 -0.22,0.14 -0.59,0.56 -1.22,0.64 -0.62,0.08 -1.5,0.08 -1.5,0.08 0,0 -0.34,-0.16 -0.04,-0.6 0.3,-0.43 0.58,-0.59 0.58,-0.59l-0.16 -0.07c0,0 -0.57,0.6 -0.78,0.7 -0.21,0.09 -0.43,-0.25 -0.43,-0.25l-0.14 0.12c0,0 0.15,0.19 -0.07,0.43 -0.22,0.24 -1.95,1.14 -1.95,1.14z"/>
  <path class="fil6" d="M60.62 17.7l-0.03 0.22c1.63,-0.04 2.16,0.19 3.66,0.7l0 -0.1c0,0 -1.06,-0.82 -3.63,-0.82z"/>
  <path class="fil6" d="M59.65 19.02c-0.24,0.18 -0.25,0.27 -0.31,0.6 0.47,0.27 2.28,0.52 2.89,0.72 0.16,0.05 7.65,-0.04 7.64,-0.17 -0.02,-0.16 -3.37,0.06 -4.58,-0.38 -0.01,0 -4.96,0.27 -4,-0.35 0.12,-0.07 4.04,-0.04 2.55,-0.71 -0.08,-0.04 -3.09,0.32 -3.64,0.33 -0.03,0 -0.55,-0.05 -0.55,-0.04z"/>
  <path class="fil7" d="M1.63 20.5l6.36 1.57 0.13 0.23c0,0.01 0.55,0.97 -0.16,1.73 0.28,-0.05 0.55,-0.12 0.82,-0.24 1.25,-0.54 2.3,-0.11 3.45,0.35 0.76,0.31 1.64,0.9 2.54,0.9 2.2,0 4.24,-0.13 4.25,-0.13l0.06 0.21c0,0 -2.01,0.86 -4.39,0.86 -1.12,0 -2.05,-0.38 -2.91,-0.73 -0.91,-0.37 -1.74,-0.7 -2.53,-0.36 -2.03,0.88 -4.37,0.01 -4.37,0.01l-2.81 -1 2.98 -0.16c1.62,-0.08 1.98,-0.43 2.04,-0.66l-5.53 -2.28 0.07 -0.3z"/>
  <path class="fil7" d="M84.36 25.91c-0.01,0 -4.05,1.92 -5.86,-0.14 -0.56,-0.64 -1.27,-1.15 -1.95,-1.55 -0.73,-0.42 -1.4,-0.7 -1.82,-0.82 -0.11,0.75 -0.44,1.8 -2.66,1.8 -1.19,0 -2.32,-0.36 -3.43,-0.72 -1.45,-0.46 -2.93,-1.07 -4.23,-0.53l-0.06 -0.16c1.69,-0.7 2.99,-0.97 4.65,-0.44 1.02,0.32 2.05,0.65 3.07,0.65 1.38,0 1.46,-0.6 1.51,-0.95 0.06,-0.54 0.11,-0.93 0.78,-0.93 0.35,0 1.56,0.36 2.79,1.07 0.78,0.45 1.59,1.04 2.25,1.8 1.33,1.51 4.89,0.66 4.9,0.66l0.06 0.26z"/>
  <path class="fil7" d="M32.41 15.21c2.36,0.35 9,-2.59 12.83,-1.43 0.65,0.2 0.78,0.13 0.91,0.08 0.49,-0.23 0.93,-0.43 3.94,1.08 1.61,0.81 7.79,2.32 9.31,1.55l0.22 0.23c-1.32,0.67 -3,0.86 -4.69,0.73 -1.95,-0.14 -3.93,-0.71 -5.38,-1.44 -2.49,-1.26 -2.69,-1.17 -2.9,-1.07 -0.33,0.15 -0.67,0.31 -1.76,-0.02 -1.35,-0.41 -4.21,0.03 -6.92,0.44 -2.29,0.35 -4.43,0.36 -5.7,0.17l0.14 -0.32z"/>
  <path class="fil7" d="M19.69 22.56c1.64,-0.12 3.7,-0.02 5.81,0.9 1.09,0.48 3.45,0.69 5.61,0.48 2.33,-0.23 3.82,-0.39 4.87,-1.13 -0.56,1.81 -3.12,2.15 -4.75,2.31 -2.34,0.24 -4.95,-0.02 -6.21,-0.56 -2.94,-1.29 -5.87,-0.78 -7.43,-0.51 -0.76,0.13 -1.26,0.22 -1.59,0 0.96,-0.5 1.06,-1.29 3.69,-1.49z"/>
  <path class="fil7" d="M54.91 25.43c0.01,0.01 3.49,0.03 6.96,0.58 1.88,0.3 3.85,0.53 5.49,0.54 0.57,0.01 3.92,0.24 4.05,-0.58l0.45 -0.06c-0.06,0.37 -0.22,0.67 -0.48,0.92 -0.72,0.69 -2.21,0.94 -4.03,0.92 -1.71,-0.02 -3.74,-0.26 -5.66,-0.56 -3.69,-0.58 -7.14,-1.53 -7.17,-1.57l0.39 -0.19z"/>
  <path class="fil7" d="M8.71 16.97c0.26,-0.15 1.17,-0.22 2.3,-0.3 1.56,-0.11 3.6,-0.26 4.44,-0.55 1.64,-0.56 2,0.2 2.5,1.23 0.63,1.29 1.58,3.25 9.67,0.92 0.67,-0.19 1.63,-0.22 2.59,-0.15 1.13,0.09 2.29,0.31 2.97,0.55l0.65 0.23c-0.78,0.63 -4.62,0.15 -5.88,0.52 -9.06,2.61 -10.27,0.1 -11.07,-1.55 -0.24,-0.48 -0.41,-0.84 -1.05,-0.62 -0.98,0.34 -2.77,0.12 -4.4,0.24 -0.98,0.07 -1.93,-0.05 -2.72,-0.52z"/>
  <path class="fil7" d="M58.53 14.26c0.67,-0.09 2.06,-0.77 3.62,-0.3 1,0.29 2.03,0.81 2.92,1.7 3.58,3.55 7.42,2.98 10.52,2.52 2.6,-0.39 4.74,-0.71 6.09,1.19 -4.08,-1.24 -4.45,-0.27 -5.92,-0.01 -3.36,0.5 -7.53,1.13 -11.53,-2.86 -0.73,-0.72 -1.59,-1.15 -2.42,-1.4 -1.35,-0.4 -2.62,-0.32 -3.2,-0.24l-0.08 -0.6z"/>
  <path class="fil7" d="M67.48 4.69c-2.21,2.22 -4.55,1.49 -7.12,0.69 -2.02,-0.63 -4.21,-1.32 -6.48,-0.32 -1.14,0.5 -4.04,1.28 -6.71,1.68 -0.64,0.09 -5.15,-0.65 -5.18,-0.63l-1.88 -0.34c0.35,-0.29 5.69,-0.04 6.89,-0.22 2.56,-0.38 5.34,-1.11 6.4,-1.58 2.68,-1.18 5.09,-0.43 7.32,0.27 1.95,0.6 3.74,1.17 5.36,0.06l1.4 0.39z"/>
  <path class="fil6" d="M64.81 40c-2.15,-1.86 -11.15,-3.25 -21.94,-3.25 -10.78,0 -19.79,1.39 -21.94,3.25 5.16,-0.94 13.07,-1.54 21.94,-1.54 8.87,0 16.78,0.6 21.94,1.54z"/>
  <path class="fil7" d="M0.41 19.89c0.08,-0.07 1.6,-1.12 1.53,-1.31 -0.81,-2.18 -0.34,-3.1 0.73,-3.5 0.64,-0.24 1.48,-0.2 2.36,-0.16 1.37,0.06 2.88,0.13 3.21,-1.07 0.65,-2.42 3.48,-3.25 5.67,-3.89 1.02,-0.29 1.87,-0.55 2.09,-0.81 0.03,-0.03 -0.1,-0.17 -0.47,-0.48 -0.81,-0.66 -0.91,-1.23 -0.49,-1.75 0.72,-0.86 3.88,-0.85 7.02,-0.83 2.86,0.01 5.71,0.02 5.97,-0.37l0 0c0.04,-0.06 -0.23,-0.04 -0.67,-0.32 -0.29,-0.19 -0.41,-0.45 -0.38,-0.76 0.06,-0.43 0.56,-0.84 1.4,-1.22 0.67,-0.29 1.59,-0.62 2.68,-0.95 5.1,-1.55 13.87,-3.16 15.75,-2.12 1.31,0.73 3.94,0.41 5.47,0.22 0.76,-0.1 1.3,-0.16 1.57,-0.01 1.43,0.8 3.64,1.18 5.78,1.54 1.88,0.32 3.71,0.64 5.06,1.23 3.93,1.75 5.98,1.21 7,0.95 0.54,-0.14 0.88,-0.23 1.24,-0.01 0.59,0.35 0.52,1.12 0.33,3.27l-0.07 0.76c2.34,0.68 2.83,1.42 3.19,1.97 0.11,0.16 0.19,0.29 0.37,0.35l0.31 0.11 0.08 0.32c0.36,1.58 0.9,1.74 1.36,1.87 0.39,0.11 0.76,0.21 1.09,0.62 1.45,1.78 2.92,2.03 3.7,2.16 0.39,0.07 0.67,0.12 0.88,0.31 0.44,0.4 0.37,0.81 -0.28,1.53 -0.45,0.49 -0.46,1.36 -0.23,2.3 0.3,1.22 0.92,2.91 1.7,3.71l-0.23 0.13c-0.57,0.18 -2.28,-2.14 -2.63,-3.56 -0.31,-1.24 -0.25,-2.45 0.4,-3.27 -0.97,-0.17 -2.62,-0.56 -4.24,-2.56 -0.09,-0.11 -0.28,-0.17 -0.48,-0.22 -0.75,-0.21 -1.6,-0.46 -2.14,-2.46 -0.32,-0.18 -0.48,-0.42 -0.66,-0.69 -0.27,-0.42 -0.65,-1 -2.98,-1.59l-0.49 -0.13 0.04 -0.5 0.12 -1.27c0.14,-1.6 0.3,-2.11 0.25,-2.14 -0.07,-0.04 -0.09,0.08 -0.33,0.14 -1.16,0.3 -3.48,0.91 -7.78,-1 -1.22,-0.54 -2.98,-0.84 -4.78,-1.15 -2.24,-0.38 -4.55,-0.77 -6.16,-1.68 -0.07,-0.04 -0.31,0.09 -0.84,0.16 -1.67,0.2 -4.55,0.56 -6.2,-0.36 -1.61,-0.9 -9.92,0.72 -14.82,2.21 -1.04,0.32 -1.92,0.62 -2.54,0.9 -0.18,0.08 -0.34,0.14 -0.45,0.18 0.79,0.62 0.94,1.18 0.61,1.68l0 0c-0.61,0.94 -3.78,0.92 -6.97,0.91 -2.86,-0.01 -5.74,-0.03 -6.09,0.4 -0.07,0.08 0.16,-0.06 0.32,0.07 1.04,0.86 1.14,1.54 0.63,2.16 -0.45,0.55 -1.47,0.85 -2.68,1.2 -1.91,0.56 -4.37,1.28 -4.85,3.05 -0.58,2.13 -2.59,2.04 -4.42,1.95 -0.75,-0.03 -1.46,-0.06 -1.89,0.09 -0.39,0.15 -0.51,0.65 -0.02,1.96 0.2,0.55 -0.02,0.67 -0.66,1.08 -0.42,0.28 -1.23,0.57 -1.93,0.89l-0.06 -0.24zm82.96 -2.99c-0.01,-0.01 -0.03,-0.02 -0.05,-0.01 0.09,0.06 0.14,0.09 0.05,0.01z"/>
 </g>
</svg>
